<?xml version="1.0" encoding="UTF-8"?>
<!DOCTYPE svg PUBLIC "-//W3C//DTD SVG 1.1//EN" "http://www.w3.org/Graphics/SVG/1.1/DTD/svg11.dtd">
<!-- Creator: CorelDRAW 2019 (64-Bit) -->
<svg xmlns="http://www.w3.org/2000/svg" xml:space="preserve" width="4.3in" height="4.5in" version="1.1" style="shape-rendering:geometricPrecision; text-rendering:geometricPrecision; image-rendering:optimizeQuality; fill-rule:evenodd; clip-rule:evenodd"
viewBox="0 0 4300 4500"
 xmlns:xlink="http://www.w3.org/1999/xlink">
 <defs>
  <style type="text/css">
   <![CDATA[
    .str1 {stroke:#622E8A;stroke-width:111.11;stroke-miterlimit:2.61313}
    .str0 {stroke:#622E8A;stroke-width:166.67;stroke-miterlimit:2.61313}
    .fil0 {fill:none}
    .fil2 {fill:#632F8B}
    .fil1 {fill:#6A0DAD}
   ]]>
  </style>
 </defs>
 <g id="Layer_x0020_1">
  <metadata id="CorelCorpID_0Corel-Layer"/>
  <path class="fil0 str0" d="M1852.91 1884.66l475.14 0c414.74,-0.43 529.28,281.19 531.67,666.73l-4.61 1005.77c2.82,352.07 -185.7,394.06 -525.96,383.26l-482.63 1.03c-307.66,12.81 -536.14,-79.93 -527.11,-357.42l-3.42 -1062.34c4.14,-408.63 173.22,-642.41 536.93,-637.04z"/>
  <path class="fil1 str1" d="M1325.68 3217.99c-10.4,9.78 -19.76,21.41 -28.15,34.55 -25.2,-29.6 -55.53,-54.4 -91.76,-73.66 -58.06,-30.86 -131.48,-47.71 -223.41,-47.62l0 0.09 -401.07 0 -0.26 -0.09 -3.27 -0.05c-144.31,-1.44 -249.8,43.71 -319.42,129.21 -70.73,86.87 -105.86,216.06 -108.3,381.07l-0.07 5.79 0.5 152.51c-15.46,-1.57 -30.2,-3.4 -44.04,-4.75 -0.41,-51.39 -0.85,-102.9 -0.2,-154.06 2.58,-175.08 40.91,-313.41 118.09,-408.22 78.3,-96.17 195.21,-146.96 353.87,-145.35l3.1 0.04 0 -0.08 401.07 0 0 0.09c99.65,-0.1 179.9,18.51 244.03,52.59 38.81,20.63 71.66,46.85 99.29,77.94z"/>
  <circle class="fil0 str0" cx="682.77" cy="2502.49" r="435.45"/>
  <path class="fil2 str1" d="M2911.85 3250.07c-15.08,-5.87 -30.48,-10.18 -46.02,-12.93 30.84,-40.23 69.15,-73.47 116.24,-98.5 64.13,-34.08 144.37,-52.69 244.03,-52.59l0 -0.09 401.07 0 0 0.08 3.1 -0.04c158.66,-1.6 275.58,49.19 353.88,145.35 77.18,94.81 115.5,233.15 118.08,408.22 0.66,51.16 0.21,102.67 -0.19,154.06 -13.85,1.35 -28.58,3.17 -44.04,4.76l0.49 -152.52 -0.07 -5.79c-2.44,-165.01 -37.57,-294.2 -108.31,-381.07 -69.61,-85.51 -175.1,-130.65 -319.41,-129.2l-3.27 0.04 -0.26 0.09 -401.07 0 0 -0.09c-91.92,-0.1 -165.35,16.76 -223.41,47.61 -35.78,19.01 -65.81,43.45 -90.84,72.58z"/>
  <circle class="fil0 str0" cx="3482.59" cy="2499.87" r="435.45"/>
  <circle class="fil0 str0" cx="2138.84" cy="887.17" r="639.98"/>
  <path class="fil0 str0" d="M1248.15 880.58c-526.32,309.74 -676.65,610.13 -758.71,1053.9"/>
  <path class="fil0 str0" d="M2959.48 904.55c526.32,309.74 676.65,610.13 758.71,1053.91"/>
 </g>
</svg>
